<?xml version="1.0" encoding="utf-8"?>
<!-- Generator: Adobe Illustrator 19.2.0, SVG Export Plug-In . SVG Version: 6.00 Build 0)  -->
<svg version="1.1" id="Livello_1" xmlns="http://www.w3.org/2000/svg" xmlns:xlink="http://www.w3.org/1999/xlink" x="0px" y="0px"
	 viewBox="0 0 194 42" style="enable-background:new 0 0 194 42;" xml:space="preserve">
<style type="text/css">
	.st5{fill:#343959;}
	.st6{fill:#FCEEE2;}
	.st7{fill:#C22751;}
	.st8{fill:#36A5CF;}
	.st9{fill:#61E5F4;}
</style>
<path class="st5" d="M2,6.5h92v2h4v-2h60v2h4v-2h32v28h-2v2h-48v-2h-2v2H96v-4h-2v2h-2v2H0v-28h2V6.5z"/>
<path class="st6" d="M4,8.5h28v10H14v4h18v10H4V8.5z"/>
<path class="st6" d="M36,8.5h28v24H36V8.5z"/>
<path class="st6" d="M68,8.5h24v2H70v20h22v2H68V8.5z"/>
<path class="st6" d="M100,8.5h28v10h-4v4h4v10h-28V8.5z"/>
<path class="st6" d="M132,8.5h24v2h-22v20h6v-6h6v2h2v2h2v2h8v-2h2v4h-12v-2h-2v-2h-2v-2h-2v6h-10V8.5z"/>
<path class="st6" d="M164,8.5h28v24h-28V8.5z"/>
<path class="st7" d="M2,10.5h2v22h26v2H2V10.5z"/>
<path class="st8" d="M6,10.5h24v3H6V10.5z"/>
<path class="st7" d="M34,10.5h2v22h26v2H34V10.5z"/>
<path class="st8" d="M38,10.5h24v3H38V10.5z"/>
<path class="st7" d="M66,10.5h2v22h22v2H66V10.5z"/>
<path class="st8" d="M70,10.5h22v2h2v1H70V10.5z"/>
<path class="st6" d="M92,10.5h2v2h-2V10.5z"/>
<path class="st7" d="M98,10.5h2v22h26v2H98V10.5z"/>
<path class="st8" d="M102,10.5h24v3h-24V10.5z"/>
<path class="st7" d="M130,10.5h2v22h8v2h-10V10.5z"/>
<path class="st8" d="M134,10.5h22v2h2v1h-24V10.5z"/>
<path class="st6" d="M156,10.5h2v2h-2V10.5z"/>
<path class="st7" d="M162,10.5h2v22h26v2h-28V10.5z"/>
<path class="st8" d="M166,10.5h24v3h-24V10.5z"/>
<path class="st6" d="M94,12.5h2v16h-2V12.5z"/>
<path class="st6" d="M158,12.5h2v10h-2V12.5z"/>
<path class="st9" d="M6,13.5h24v1H6V13.5z"/>
<path class="st9" d="M38,13.5h24v1H38V13.5z"/>
<path class="st9" d="M70,13.5h24v1H70V13.5z"/>
<path class="st9" d="M102,13.5h24v1h-24V13.5z"/>
<path class="st9" d="M134,13.5h24v1h-24V13.5z"/>
<path class="st9" d="M166,13.5h24v1h-24V13.5z"/>
<path class="st8" d="M6,14.5h24v1H6V14.5z"/>
<path class="st8" d="M38,14.5h24v1H38V14.5z"/>
<path class="st8" d="M70,14.5h24v1H70V14.5z"/>
<path class="st8" d="M102,14.5h24v1h-24V14.5z"/>
<path class="st8" d="M134,14.5h6v1h-6V14.5z"/>
<path class="st6" d="M140,14.5h10v2h-8v2h8v2h-10V14.5z"/>
<path class="st8" d="M150,14.5h8v1h-8V14.5z"/>
<path class="st8" d="M166,14.5h24v1h-24V14.5z"/>
<path class="st9" d="M6,15.5h24v1H12v1H6V15.5z"/>
<path class="st9" d="M38,15.5h24v2h-6v-1H44v1h-6V15.5z"/>
<path class="st9" d="M70,15.5h24v2h-6v-1H76v1h-6V15.5z"/>
<path class="st9" d="M102,15.5h24v1h-18v1h-6V15.5z"/>
<path class="st9" d="M134,15.5h6v2h-6V15.5z"/>
<path class="st9" d="M150,15.5h8v2h-6v-1h-2V15.5z"/>
<path class="st9" d="M166,15.5h24v1h-18v1h-6V15.5z"/>
<path class="st6" d="M44,16.5h12v8H44V16.5z"/>
<path class="st6" d="M76,16.5h12v8H76V16.5z"/>
<path class="st7" d="M142,16.5h8v2h-8V16.5z"/>
<path class="st6" d="M150,16.5h2v2h-2V16.5z"/>
<path class="st8" d="M6,17.5h6v7h18v6H6V17.5z"/>
<path class="st8" d="M38,17.5h6v7h12v-7h6v13H38V17.5z"/>
<path class="st8" d="M70,17.5h6v7h12v-7h6v11h-2v2H70V17.5z"/>
<path class="st8" d="M102,17.5h6v1h14v4h-14v2h18v6h-24V17.5z"/>
<path class="st8" d="M134,17.5h6v3h10v-2h2v-1h6v5h-2v2h-2v2h2v2h2v2h-8v-2h-2v-2h-2v-2h-6v6h-6V17.5z"/>
<path class="st8" d="M166,17.5h6v1h18v12h-24v-6h17v-2h-17V17.5z"/>
<path class="st7" d="M14,18.5h16v2H14V18.5z"/>
<path class="st7" d="M46,18.5h8v4h-2v-2h-6V18.5z"/>
<path class="st7" d="M78,18.5h8v4h-2v-2h-6V18.5z"/>
<path class="st7" d="M124,18.5h2v2h-2V18.5z"/>
<path class="st5" d="M46,20.5h6v2h-6V20.5z"/>
<path class="st5" d="M78,20.5h6v2h-6V20.5z"/>
<path class="st6" d="M156,22.5h2v2h-2V22.5z"/>
<path class="st6" d="M154,24.5h2v2h-2V24.5z"/>
<path class="st7" d="M142,26.5h2v2h2v2h2v2h10v2h-12v-2h-2v-2h-2V26.5z"/>
<path class="st6" d="M156,26.5h2v2h-2V26.5z"/>
<path class="st6" d="M92,28.5h2v2h-2V28.5z"/>
</svg>
