<?xml version="1.0" encoding="utf-8"?>
<!-- generated at drububu.com  -->
<!DOCTYPE svg PUBLIC "-//W3C//DTD SVG 1.1//EN" "http://www.w3.org/Graphics/SVG/1.1/DTD/svg11.dtd">
<svg version="1.1" preserveAspectRatio="xMinYMin meet" xmlns="http://www.w3.org/2000/svg" xmlns:xlink="http://www.w3.org/1999/xlink" x="0px" y="0px" width="194px" height="80px" viewBox="0 0 194 80">
<path d="M2 0h92v2h4v-2h60v2h4v-2h32v28h-2v2h-48v-2h-2v2h-46v-4h-2v2h-2v2h-92
	v-28h2v-2z" fill="rgb(52,57,89)"/>
<path d="M4 2h28v10h-18v4h18v10h-28v-24z" fill="rgb(252,238,226)"/>
<path d="M36 2h28v24h-28v-24z" fill="rgb(252,238,226)"/>
<path d="M68 2h24v2h-22v20h22v2h-24v-24z" fill="rgb(252,238,226)"/>
<path d="M100 2h28v10h-4v4h4v10h-28v-24z" fill="rgb(252,238,226)"/>
<path d="M132 2h24v2h-22v20h6v-6h6v2h2v2h2v2h8v-2h2v4h-12v-2h-2v-2h-2v-2h-2v6
	h-10v-24z" fill="rgb(252,238,226)"/>
<path d="M164 2h28v24h-28v-24z" fill="rgb(252,238,226)"/>
<path d="M2 4h2v22h26v2h-28v-24z" fill="rgb(194,39,81)"/>
<path d="M6 4h24v3h-24v-3z" fill="rgb(54,165,207)"/>
<path d="M34 4h2v22h26v2h-28v-24z" fill="rgb(194,39,81)"/>
<path d="M38 4h24v3h-24v-3z" fill="rgb(54,165,207)"/>
<path d="M66 4h2v22h22v2h-24v-24z" fill="rgb(194,39,81)"/>
<path d="M70 4h22v2h2v1h-24v-3z" fill="rgb(54,165,207)"/>
<path d="M92 4h2v2h-2v-2z" fill="rgb(252,238,226)"/>
<path d="M98 4h2v22h26v2h-28v-24z" fill="rgb(194,39,81)"/>
<path d="M102 4h24v3h-24v-3z" fill="rgb(54,165,207)"/>
<path d="M130 4h2v22h8v2h-10v-24z" fill="rgb(194,39,81)"/>
<path d="M134 4h22v2h2v1h-24v-3z" fill="rgb(54,165,207)"/>
<path d="M156 4h2v2h-2v-2z" fill="rgb(252,238,226)"/>
<path d="M162 4h2v22h26v2h-28v-24z" fill="rgb(194,39,81)"/>
<path d="M166 4h24v3h-24v-3z" fill="rgb(54,165,207)"/>
<path d="M94 6h2v16h-2v-16z" fill="rgb(252,238,226)"/>
<path d="M158 6h2v10h-2v-10z" fill="rgb(252,238,226)"/>
<path d="M6 7h24v1h-24v-1z" fill="rgb(97,229,244)"/>
<path d="M38 7h24v1h-24v-1z" fill="rgb(97,229,244)"/>
<path d="M70 7h24v1h-24v-1z" fill="rgb(97,229,244)"/>
<path d="M102 7h24v1h-24v-1z" fill="rgb(97,229,244)"/>
<path d="M134 7h24v1h-24v-1z" fill="rgb(97,229,244)"/>
<path d="M166 7h24v1h-24v-1z" fill="rgb(97,229,244)"/>
<path d="M6 8h24v1h-24v-1z" fill="rgb(54,165,207)"/>
<path d="M38 8h24v1h-24v-1z" fill="rgb(54,165,207)"/>
<path d="M70 8h24v1h-24v-1z" fill="rgb(54,165,207)"/>
<path d="M102 8h24v1h-24v-1z" fill="rgb(54,165,207)"/>
<path d="M134 8h6v1h-6v-1z" fill="rgb(54,165,207)"/>
<path d="M140 8h10v2h-8v2h8v2h-10v-6z" fill="rgb(252,238,226)"/>
<path d="M150 8h8v1h-8v-1z" fill="rgb(54,165,207)"/>
<path d="M166 8h24v1h-24v-1z" fill="rgb(54,165,207)"/>
<path d="M6 9h24v1h-18v1h-6v-2z" fill="rgb(97,229,244)"/>
<path d="M38 9h24v2h-6v-1h-12v1h-6v-2z" fill="rgb(97,229,244)"/>
<path d="M70 9h24v2h-6v-1h-12v1h-6v-2z" fill="rgb(97,229,244)"/>
<path d="M102 9h24v1h-18v1h-6v-2z" fill="rgb(97,229,244)"/>
<path d="M134 9h6v2h-6v-2z" fill="rgb(97,229,244)"/>
<path d="M150 9h8v2h-6v-1h-2v-1z" fill="rgb(97,229,244)"/>
<path d="M166 9h24v1h-18v1h-6v-2z" fill="rgb(97,229,244)"/>
<path d="M44 10h12v8h-12v-8z" fill="rgb(252,238,226)"/>
<path d="M76 10h12v8h-12v-8z" fill="rgb(252,238,226)"/>
<path d="M142 10h8v2h-8v-2z" fill="rgb(194,39,81)"/>
<path d="M150 10h2v2h-2v-2z" fill="rgb(252,238,226)"/>
<path d="M6 11h6v7h18v6h-24v-13z" fill="rgb(54,165,207)"/>
<path d="M38 11h6v7h12v-7h6v13h-24v-13z" fill="rgb(54,165,207)"/>
<path d="M70 11h6v7h12v-7h6v11h-2v2h-22v-13z" fill="rgb(54,165,207)"/>
<path d="M102 11h6v1h14v4h-14v2h18v6h-24v-13z" fill="rgb(54,165,207)"/>
<path d="M134 11h6v3h10v-2h2v-1h6v5h-2v2h-2v2h2v2h2v2h-8v-2h-2v-2h-2v-2h-6v6h-6
	v-13z" fill="rgb(54,165,207)"/>
<path d="M166 11h6v1h18v12h-24v-6h17v-2h-17v-5z" fill="rgb(54,165,207)"/>
<path d="M14 12h16v2h-16v-2z" fill="rgb(194,39,81)"/>
<path d="M46 12h8v4h-2v-2h-6v-2z" fill="rgb(194,39,81)"/>
<path d="M78 12h8v4h-2v-2h-6v-2z" fill="rgb(194,39,81)"/>
<path d="M124 12h2v2h-2v-2z" fill="rgb(194,39,81)"/>
<path d="M46 14h6v2h-6v-2z" fill="rgb(52,57,89)"/>
<path d="M78 14h6v2h-6v-2z" fill="rgb(52,57,89)"/>
<path d="M156 16h2v2h-2v-2z" fill="rgb(252,238,226)"/>
<path d="M154 18h2v2h-2v-2z" fill="rgb(252,238,226)"/>
<path d="M142 20h2v2h2v2h2v2h10v2h-12v-2h-2v-2h-2v-4z" fill="rgb(194,39,81)"/>
<path d="M156 20h2v2h-2v-2z" fill="rgb(252,238,226)"/>
<path d="M92 22h2v2h-2v-2z" fill="rgb(252,238,226)"/>
<path d="M9 32h7v8h-7v-8z" fill="rgb(52,57,89)"/>
<path d="M18 32h7v8h-7v-8z" fill="rgb(52,57,89)"/>
<path d="M27 32h7v4h-2v4h-3v-4h-2v-4z" fill="rgb(52,57,89)"/>
<path d="M36 32h7v4h-2v4h-3v-4h-2v-4z" fill="rgb(52,57,89)"/>
<path d="M45 32h7v8h-3v-1h-1v1h-3v-8z" fill="rgb(52,57,89)"/>
<path d="M64 32h7v6h-4v2h-3v-8z" fill="rgb(52,57,89)"/>
<path d="M73 32h7v8h-7v-8z" fill="rgb(52,57,89)"/>
<path d="M82 32h7v4h-2v4h-3v-4h-2v-4z" fill="rgb(52,57,89)"/>
<path d="M91 32h7v8h-7v-8z" fill="rgb(52,57,89)"/>
<path d="M100 32h3v2h1v-2h3v8h-3v-2h-1v2h-3v-8z" fill="rgb(52,57,89)"/>
<path d="M120 32h3v5h-1v1h-3v-4h1v-2z" fill="rgb(52,57,89)"/>
<path d="M125 32h7v8h-7v-8z" fill="rgb(52,57,89)"/>
<path d="M134 32h7v8h-7v-8z" fill="rgb(52,57,89)"/>
<path d="M153 32h7v8h-3v-1h-1v1h-3v-8z" fill="rgb(52,57,89)"/>
<path d="M162 32h3v4h1v-1h3v5h-7v-8z" fill="rgb(52,57,89)"/>
<path d="M171 32h3v4h1v-1h3v5h-7v-8z" fill="rgb(52,57,89)"/>
<path d="M182 32h3v8h-3v-8z" fill="rgb(52,57,89)"/>
<path d="M10 33h5v1h-4v3h3v-1h-1v-1h2v3h-5v-5z" fill="rgb(252,238,226)"/>
<path d="M19 33h5v5h-5v-5z" fill="rgb(252,238,226)"/>
<path d="M28 33h5v1h-2v4h-1v-4h-2v-1z" fill="rgb(252,238,226)"/>
<path d="M37 33h5v1h-2v4h-1v-4h-2v-1z" fill="rgb(252,238,226)"/>
<path d="M46 33h5v5h-1v-1h-3v1h-1v-5z" fill="rgb(252,238,226)"/>
<path d="M65 33h5v1h-4v1h4v1h-4v2h-1v-5z" fill="rgb(252,238,226)"/>
<path d="M74 33h5v1h-4v1h3v1h-3v1h4v1h-5v-5z" fill="rgb(252,238,226)"/>
<path d="M83 33h5v1h-2v4h-1v-4h-2v-1z" fill="rgb(252,238,226)"/>
<path d="M92 33h5v1h-4v3h4v1h-5v-5z" fill="rgb(252,238,226)"/>
<path d="M101 33h1v2h3v-2h1v5h-1v-2h-3v2h-1v-5z" fill="rgb(252,238,226)"/>
<path d="M121 33h1v2h-1v-2z" fill="rgb(252,238,226)"/>
<path d="M126 33h5v1h-4v1h3v1h-3v1h4v1h-5v-5z" fill="rgb(252,238,226)"/>
<path d="M135 33h5v5h-1v-4h-1v4h-1v-4h-1v4h-1v-5z" fill="rgb(252,238,226)"/>
<path d="M154 33h5v5h-1v-1h-3v1h-1v-5z" fill="rgb(252,238,226)"/>
<path d="M163 33h1v4h3v-1h1v2h-5v-5z" fill="rgb(252,238,226)"/>
<path d="M172 33h1v4h3v-1h1v2h-5v-5z" fill="rgb(252,238,226)"/>
<path d="M183 33h1v3h-1v-3z" fill="rgb(252,238,226)"/>
<path d="M0 34h7v4h-7v-4z" fill="rgb(52,57,89)"/>
<path d="M11 34h4v1h-4v-1z" fill="rgb(194,39,81)"/>
<path d="M20 34h3v1h-3v-1z" fill="rgb(194,39,81)"/>
<path d="M28 34h2v1h-2v-1z" fill="rgb(194,39,81)"/>
<path d="M31 34h2v1h-2v-1z" fill="rgb(194,39,81)"/>
<path d="M37 34h2v1h-2v-1z" fill="rgb(194,39,81)"/>
<path d="M40 34h2v1h-2v-1z" fill="rgb(194,39,81)"/>
<path d="M47 34h3v1h-3v-1z" fill="rgb(194,39,81)"/>
<path d="M66 34h4v1h-4v-1z" fill="rgb(194,39,81)"/>
<path d="M75 34h4v1h-4v-1z" fill="rgb(194,39,81)"/>
<path d="M83 34h2v1h-2v-1z" fill="rgb(194,39,81)"/>
<path d="M86 34h2v1h-2v-1z" fill="rgb(194,39,81)"/>
<path d="M93 34h4v1h-4v-1z" fill="rgb(194,39,81)"/>
<path d="M127 34h4v1h-4v-1z" fill="rgb(194,39,81)"/>
<path d="M136 34h1v1h-1v-1z" fill="rgb(194,39,81)"/>
<path d="M138 34h1v1h-1v-1z" fill="rgb(194,39,81)"/>
<path d="M155 34h3v1h-3v-1z" fill="rgb(194,39,81)"/>
<path d="M187 34h7v4h-7v-4z" fill="rgb(52,57,89)"/>
<path d="M1 35h5v1h-5v-1z" fill="rgb(252,238,226)"/>
<path d="M11 35h2v2h-2v-2z" fill="rgb(52,57,89)"/>
<path d="M20 35h3v2h-3v-2z" fill="rgb(52,57,89)"/>
<path d="M47 35h3v1h-3v-1z" fill="rgb(52,57,89)"/>
<path d="M120 35h1v1h-1v-1z" fill="rgb(252,238,226)"/>
<path d="M121 35h1v1h-1v-1z" fill="rgb(194,39,81)"/>
<path d="M155 35h3v1h-3v-1z" fill="rgb(52,57,89)"/>
<path d="M188 35h5v1h-5v-1z" fill="rgb(252,238,226)"/>
<path d="M1 36h5v1h-5v-1z" fill="rgb(194,39,81)"/>
<path d="M13 36h1v1h-1v-1z" fill="rgb(194,39,81)"/>
<path d="M66 36h4v1h-4v-1z" fill="rgb(194,39,81)"/>
<path d="M75 36h3v1h-3v-1z" fill="rgb(194,39,81)"/>
<path d="M102 36h3v1h-3v-1z" fill="rgb(194,39,81)"/>
<path d="M120 36h1v1h-1v-1z" fill="rgb(194,39,81)"/>
<path d="M127 36h3v1h-3v-1z" fill="rgb(194,39,81)"/>
<path d="M183 36h1v1h-1v-1z" fill="rgb(194,39,81)"/>
<path d="M188 36h5v1h-5v-1z" fill="rgb(194,39,81)"/>
<path d="M47 37h3v1h-3v-1z" fill="rgb(194,39,81)"/>
<path d="M155 37h3v1h-3v-1z" fill="rgb(194,39,81)"/>
<path d="M183 37h1v1h-1v-1z" fill="rgb(252,238,226)"/>
<path d="M10 38h5v1h-5v-1z" fill="rgb(194,39,81)"/>
<path d="M19 38h5v1h-5v-1z" fill="rgb(194,39,81)"/>
<path d="M30 38h1v1h-1v-1z" fill="rgb(194,39,81)"/>
<path d="M39 38h1v1h-1v-1z" fill="rgb(194,39,81)"/>
<path d="M46 38h1v1h-1v-1z" fill="rgb(194,39,81)"/>
<path d="M50 38h1v1h-1v-1z" fill="rgb(194,39,81)"/>
<path d="M65 38h1v1h-1v-1z" fill="rgb(194,39,81)"/>
<path d="M74 38h5v1h-5v-1z" fill="rgb(194,39,81)"/>
<path d="M85 38h1v1h-1v-1z" fill="rgb(194,39,81)"/>
<path d="M92 38h5v1h-5v-1z" fill="rgb(194,39,81)"/>
<path d="M101 38h1v1h-1v-1z" fill="rgb(194,39,81)"/>
<path d="M105 38h1v1h-1v-1z" fill="rgb(194,39,81)"/>
<path d="M126 38h5v1h-5v-1z" fill="rgb(194,39,81)"/>
<path d="M135 38h1v1h-1v-1z" fill="rgb(194,39,81)"/>
<path d="M137 38h1v1h-1v-1z" fill="rgb(194,39,81)"/>
<path d="M139 38h1v1h-1v-1z" fill="rgb(194,39,81)"/>
<path d="M154 38h1v1h-1v-1z" fill="rgb(194,39,81)"/>
<path d="M158 38h1v1h-1v-1z" fill="rgb(194,39,81)"/>
<path d="M163 38h5v1h-5v-1z" fill="rgb(194,39,81)"/>
<path d="M172 38h5v1h-5v-1z" fill="rgb(194,39,81)"/>
<path d="M183 38h1v1h-1v-1z" fill="rgb(194,39,81)"/>
</svg>